<?xml version="1.0" encoding="utf-8"?>
<!-- Generator: Adobe Illustrator 16.0.0, SVG Export Plug-In . SVG Version: 6.00 Build 0)  -->
<!DOCTYPE svg PUBLIC "-//W3C//DTD SVG 1.1//EN" "http://www.w3.org/Graphics/SVG/1.1/DTD/svg11.dtd">
<svg version="1.1" id="Layer_1" xmlns="http://www.w3.org/2000/svg" xmlns:xlink="http://www.w3.org/1999/xlink" x="0px" y="0px"
	 width="589.769px" height="372.79px" viewBox="0 0 589.769 372.79" enable-background="new 0 0 589.769 372.79"
	 xml:space="preserve">
<g id="Horizontal">
	<g>
		<path fill-rule="evenodd" clip-rule="evenodd" fill="#FFFFFF" d="M298.381,100.988c-10.126,0-15.65,13.364-15.65,24.836
			c0,19.101,8.592,49.287,26.699,49.287c9.532,0,14.445-10.697,14.445-21.403C323.875,137.668,316.199,100.988,298.381,100.988z"/>
		<path fill-rule="evenodd" clip-rule="evenodd" fill="#FFFFFF" d="M555.055,155.433c-31.409-31.414-76.073-41.502-115.987-30.279
			C432.314,54.919,373.138,0,301.135,0C234.638,0,179.072,46.847,165.66,109.335c-43.813-13.998-93.73-3.618-128.487,31.139
			c-49.563,49.566-49.563,129.919,0,179.478c41.111,41.125,101.083,52.839,132.342,52.839c0,0,4.827-0.034,14.849-0.034h227.913
			c47.191,0.305,98.198-5.114,142.778-49.685C601.34,276.786,601.34,201.72,555.055,155.433z M357.622,255.354
			c-9.216,15.671-42.397,64.962-58.663,64.962c-8.611,0-39.931-15.655-39.931-26.726c0-3.828,4.294-8.035,6.751-9.568
			c14.442-9.562,30.418-37.062,30.418-52.352c0-4.977-2.764-7.271-6.461-7.271c-4.911,0-9.823,1.152-14.74,1.152
			c-44.526,0-65.109-48.15-65.109-91.709c0-61.146,47.607-89.035,90.913-89.035c46.071,0,92.757,28.278,92.757,92.86
			C393.556,181.61,378.191,220.578,357.622,255.354z"/>
	</g>
</g>
</svg>
