<?xml version="1.0" encoding="utf-8"?>
<!-- Generator: Adobe Illustrator 16.0.4, SVG Export Plug-In . SVG Version: 6.00 Build 0)  -->
<!DOCTYPE svg PUBLIC "-//W3C//DTD SVG 1.1//EN" "http://www.w3.org/Graphics/SVG/1.1/DTD/svg11.dtd">
<svg version="1.1" id="Ebene_1" xmlns="http://www.w3.org/2000/svg" xmlns:xlink="http://www.w3.org/1999/xlink" x="0px" y="0px"
	 width="589.769px" height="372.79px" viewBox="0 0 589.769 372.79" enable-background="new 0 0 589.769 372.79"
	 xml:space="preserve">
<g>
	<path fill="#2D8D4A" d="M298.38,100.988c-10.125,0-15.649,13.364-15.649,24.836c0,19.101,8.592,49.287,26.699,49.287
		c9.532,0,14.444-10.697,14.444-21.403C323.875,137.668,316.199,100.988,298.38,100.988L298.38,100.988z M555.054,155.433
		c-31.408-31.414-76.072-41.502-115.986-30.279C432.314,54.919,373.138,0,301.134,0C234.638,0,179.072,46.847,165.66,109.335
		c-43.813-13.998-93.73-3.618-128.487,31.139c-49.563,49.565-49.563,129.919,0,179.478c41.111,41.125,101.083,52.84,132.342,52.84
		c0,0,4.827-0.035,14.849-0.035h227.913c47.191,0.305,98.197-5.113,142.777-49.684C601.339,276.786,601.339,201.72,555.054,155.433z
		 M357.623,255.354c-9.217,15.671-42.396,64.963-58.664,64.963c-8.609,0-39.931-15.656-39.931-26.727
		c0-3.828,4.294-8.035,6.751-9.568c14.442-9.562,30.418-37.062,30.418-52.352c0-4.979-2.764-7.271-6.461-7.271
		c-4.911,0-9.823,1.152-14.74,1.152c-44.526,0-65.109-48.15-65.109-91.709c0-61.146,47.607-89.035,90.913-89.035
		c46.07,0,92.757,28.278,92.757,92.86C393.556,181.61,378.191,220.579,357.623,255.354z"/>
</g>
</svg>
