<?xml version="1.0" encoding="utf-8"?>
<!-- Generator: Adobe Illustrator 18.0.0, SVG Export Plug-In . SVG Version: 6.00 Build 0)  -->
<!DOCTYPE svg PUBLIC "-//W3C//DTD SVG 1.1//EN" "http://www.w3.org/Graphics/SVG/1.1/DTD/svg11.dtd">
<svg version="1.1" id="Logo_1_" xmlns="http://www.w3.org/2000/svg" xmlns:xlink="http://www.w3.org/1999/xlink" x="0px" y="0px"
	 viewBox="0.2 255.5 612.2 281.7" enable-background="new 0.2 255.5 612.2 281.7" xml:space="preserve">
<g id="Abgerundetes_Rechteck_5">
	<g>
		<path fill="#FFFFFF" d="M586.3,295.6c-23.3-12.2-52.6-2.4-64.9,20.8l-69.8,137.1c-12.2,23.3-2.4,52.6,20.8,64.9
			c23.3,12.2,52.6,2.4,64.9-20.8l69.8-137.1C619.3,336,609.6,306.6,586.3,295.6z"/>
	</g>
</g>
<g id="Abgerundetes_Rechteck_5_Kopie">
	<g>
		<path fill="#B9E1C5" d="M532.9,467L414.2,282.2c-12.2-23.3-41.6-33-64.9-20.8c-23.3,12.2-33,40.4-20.8,64.9l118.7,184.8
			c12.2,23.3,41.6,33,64.9,20.8C535.3,519.6,543.9,490.2,532.9,467z"/>
	</g>
</g>
<g id="Abgerundetes_Rechteck_5_Kopie_2">
	<g>
		<path fill="#FFFFFF" d="M392.9,261.4c-23.3-12.2-52.6-2.4-64.9,20.8L209.3,467c-12.2,23.3-2.4,52.6,20.8,64.9s52.6,2.4,64.9-20.8
			l118.7-184.8C426,301.8,416.2,273.6,392.9,261.4z"/>
	</g>
</g>
<g id="Abgerundetes_Rechteck_5_Kopie_3">
	<g>
		<path fill="#FFFFFF" d="M292.5,467L173.8,282.2c-12.2-23.3-41.6-33-64.9-20.8c-23.3,12.2-33,40.4-20.8,64.9l118.7,184.8
			c12.2,23.3,41.6,33,64.9,20.8C296.2,519.6,304.8,490.2,292.5,467z"/>
	</g>
</g>
<g id="Abgerundetes_Rechteck_5_Kopie_4" opacity="0.6">
	<g>
		<path fill="#FFFFFF" d="M162.8,267.5c-19.6-17.1-50.2-15.9-68.5,3.7l-82,80.8c-17.1,19.6-15.9,50.2,3.7,67.3
			c19.6,17.1,50.2,15.9,68.5-3.7l82-80.8C183.6,315.2,182.4,284.6,162.8,267.5z"/>
	</g>
</g>
</svg>
