<?xml version="1.0" encoding="utf-8"?>
<!-- Generator: Adobe Illustrator 16.0.0, SVG Export Plug-In . SVG Version: 6.00 Build 0)  -->
<!DOCTYPE svg PUBLIC "-//W3C//DTD SVG 1.1//EN" "http://www.w3.org/Graphics/SVG/1.1/DTD/svg11.dtd">
<svg version="1.1" id="logo-bg-dark" xmlns="http://www.w3.org/2000/svg" xmlns:xlink="http://www.w3.org/1999/xlink" x="0px"
	 y="0px" width="188.97px" height="337.728px" viewBox="0 0 188.97 337.728" enable-background="new 0 0 188.97 337.728"
	 xml:space="preserve">
<g id="test-tube">
	<path id="shadow_2_" opacity="0.3" d="M105.21,6.714c-0.151,0.607-0.155,1.259-0.027,1.948c0,0,2.065,13.708-0.279,19.809
		L5.229,287.643l0.008,0.003c-7.113,19.036,2.419,40.289,21.429,47.601c19.009,7.311,40.325-2.079,47.801-20.976l0.009,0.004
		l99.675-259.172c1.949-5.07,13.064-14.892,13.064-14.892c0.558-0.425,0.99-0.913,1.285-1.464l0.049-0.101
		c0.054-0.108,0.116-0.212,0.159-0.325c2.57-6.683-14.008-19.279-37.028-28.132c-23.021-8.854-43.767-10.613-46.337-3.93
		c-0.044,0.113-0.068,0.231-0.101,0.348L105.21,6.714z"/>
	
		<linearGradient id="tube_1_" gradientUnits="userSpaceOnUse" x1="27.3779" y1="262.0479" x2="90.5335" y2="325.2034" gradientTransform="matrix(0.9138 -0.4062 0.4062 0.9138 -86.8486 -73.8512)">
		<stop  offset="0" style="stop-color:#FFFFFF"/>
		<stop  offset="1" style="stop-color:#FFFFFF"/>
	</linearGradient>
	<path id="tube_2_" fill="url(#tube_1_)" d="M102.329,4.511c-0.152,0.607-0.156,1.259-0.027,1.948c0,0,2.065,13.708-0.28,19.809
		L2.347,285.439l0.009,0.003c-7.113,19.036,2.419,40.289,21.429,47.601c19.008,7.311,40.325-2.079,47.801-20.976l0.009,0.004
		l99.675-259.172c1.948-5.07,13.064-14.892,13.064-14.892c0.558-0.425,0.99-0.912,1.285-1.464l0.048-0.101
		c0.054-0.108,0.116-0.212,0.159-0.325c2.57-6.683-14.008-19.279-37.027-28.132c-23.021-8.854-43.767-10.613-46.337-3.93
		c-0.044,0.113-0.068,0.231-0.101,0.348L102.329,4.511z"/>
	<path id="liquid" fill="#4FB56E" d="M133.596,121.758l-71.88,186.9l0.047,0.018c-5.302,13.396-20.729,20.365-34.416,15.102
		s-21.094-21.015-16.053-34.512l0,0l45.93-119.426c0,0,5.736-9.253,16.999-15.836c11.263-6.583,20.551-5.193,33.058-10.752
		C119.786,137.693,133.596,121.758,133.596,121.758z"/>
	
		<ellipse id="top" transform="matrix(0.9334 0.359 -0.359 0.9334 17.0416 -50.2661)" fill="#E3E3E3" cx="143.884" cy="20.759" rx="27.717" ry="7.29"/>
	<path id="side-reflection" opacity="0.3" fill="#FFFFFF" d="M102.302,6.459c0,0,2.035,13.787-0.28,19.809L2.347,285.439
		l0.009,0.003c-7.113,19.036,2.419,40.289,21.429,47.601c3.299,1.269,6.666,2.022,10.02,2.324
		c-12.813-9.64-18.312-26.88-12.433-42.611l-0.009-0.003L119.06,38.722C119.06,38.722,105.761,26.235,102.302,6.459z"/>
	<g id="bubbles">
		<circle opacity="0.5" fill="#FFFFFF" cx="70.21" cy="173.646" r="2.888"/>
		<circle opacity="0.5" fill="#FFFFFF" cx="89.143" cy="194.586" r="4.354"/>
		<circle opacity="0.5" fill="#FFFFFF" cx="60.242" cy="219.489" r="8.167"/>
		<circle opacity="0.5" fill="#FFFFFF" cx="47.018" cy="234.593" r="4.354"/>
		<circle opacity="0.5" fill="#FFFFFF" cx="64.362" cy="266.894" r="2.888"/>
	</g>
</g>
</svg>
