<?xml version="1.0" encoding="utf-8"?>
<!-- Generator: Adobe Illustrator 16.0.4, SVG Export Plug-In . SVG Version: 6.00 Build 0)  -->
<!DOCTYPE svg PUBLIC "-//W3C//DTD SVG 1.1//EN" "http://www.w3.org/Graphics/SVG/1.1/DTD/svg11.dtd">
<svg version="1.1" id="logo-bg-dark" xmlns="http://www.w3.org/2000/svg" xmlns:xlink="http://www.w3.org/1999/xlink" x="0px"
	 y="0px" width="188.971px" height="337.727px" viewBox="0 0 188.971 337.727" enable-background="new 0 0 188.971 337.727"
	 xml:space="preserve">
<g id="test-tube">
	<path id="shadow_2_" opacity="0.3" fill="#FFFFFF" enable-background="new    " d="M105.21,6.714
		c-0.15,0.607-0.154,1.259-0.026,1.948c0,0,2.064,13.708-0.279,19.809L5.229,287.643l0.008,0.004
		c-7.112,19.035,2.419,40.287,21.43,47.601c19.009,7.311,40.325-2.078,47.801-20.975l0.01,0.004l99.675-259.173
		c1.949-5.07,13.063-14.892,13.063-14.892c0.559-0.425,0.99-0.913,1.285-1.464l0.049-0.101c0.055-0.108,0.116-0.212,0.159-0.325
		c2.569-6.683-14.008-19.279-37.027-28.132c-23.021-8.854-43.768-10.613-46.338-3.93c-0.044,0.113-0.067,0.231-0.101,0.348
		L105.21,6.714z"/>
	<path id="tube_2_" fill="#2D8D4A" d="M102.329,4.511c-0.152,0.607-0.156,1.259-0.027,1.948c0,0,2.065,13.708-0.279,19.809
		L2.347,285.439l0.009,0.002c-7.112,19.035,2.419,40.29,21.43,47.603c19.008,7.312,40.324-2.08,47.801-20.977l0.01,0.004
		L171.27,52.899c1.947-5.07,13.063-14.892,13.063-14.892c0.559-0.425,0.99-0.912,1.285-1.464l0.048-0.101
		c0.055-0.108,0.116-0.212,0.159-0.325c2.569-6.683-14.009-19.279-37.027-28.132c-23.021-8.854-43.767-10.613-46.337-3.93
		c-0.044,0.113-0.067,0.231-0.102,0.348L102.329,4.511z"/>
	<path id="liquid" fill="#4FB56E" d="M133.596,121.758l-71.88,186.901l0.048,0.018c-5.303,13.396-20.729,20.365-34.416,15.103
		c-13.688-5.265-21.095-21.017-16.054-34.512l0,0l45.93-119.428c0,0,5.735-9.253,16.999-15.836
		c11.263-6.583,20.551-5.193,33.059-10.752C119.786,137.693,133.596,121.758,133.596,121.758z"/>
	
		<ellipse id="top" transform="matrix(-0.9333 -0.359 0.359 -0.9333 270.7352 91.8187)" fill="#4FB56E" cx="143.893" cy="20.772" rx="27.718" ry="7.291"/>
	<g id="bubbles">
		<circle opacity="0.5" fill="#FFFFFF" enable-background="new    " cx="70.21" cy="173.646" r="2.888"/>
		<circle opacity="0.5" fill="#FFFFFF" enable-background="new    " cx="89.143" cy="194.586" r="4.354"/>
		<circle opacity="0.5" fill="#FFFFFF" enable-background="new    " cx="60.242" cy="219.489" r="8.167"/>
		<circle opacity="0.5" fill="#FFFFFF" enable-background="new    " cx="47.018" cy="234.593" r="4.354"/>
		<circle opacity="0.5" fill="#FFFFFF" enable-background="new    " cx="64.362" cy="266.894" r="2.888"/>
	</g>
</g>
</svg>
