<?xml version="1.0" encoding="utf-8"?>
<!-- Generator: Adobe Illustrator 16.0.0, SVG Export Plug-In . SVG Version: 6.00 Build 0)  -->
<!DOCTYPE svg PUBLIC "-//W3C//DTD SVG 1.1//EN" "http://www.w3.org/Graphics/SVG/1.1/DTD/svg11.dtd">
<svg version="1.1"
	 id="svg2" xmlns:dc="http://purl.org/dc/elements/1.1/" xmlns:cc="http://creativecommons.org/ns#" xmlns:rdf="http://www.w3.org/1999/02/22-rdf-syntax-ns#" xmlns:svg="http://www.w3.org/2000/svg"
	 xmlns="http://www.w3.org/2000/svg" xmlns:xlink="http://www.w3.org/1999/xlink" x="0px" y="0px" width="684.713px"
	 height="513.25px" viewBox="0 0 684.713 513.25" enable-background="new 0 0 684.713 513.25" xml:space="preserve">
<g>
	<defs>
		<rect id="SVGID_1_" x="-743" y="-70.994" width="684.714" height="513.244"/>
	</defs>
	<clipPath id="SVGID_2_">
		<use xlink:href="#SVGID_1_"  overflow="visible"/>
	</clipPath>
</g>
<path id="path22" fill="#2D8D4A" d="M484.142,387.853c-2.174-1.547-1.812-6.544,5.332-22.109
	c2.807-6.111,9.205-16.399,20.332-26.232c1.289,4.044,2.074,7.922,2.053,11.531C511.714,375.125,494.532,384.118,484.142,387.853
	L484.142,387.853z M392.681,408.701c-2.912,1.523-5.582,2.48-6.824,1.742c-0.91-0.544,1.201-2.55,1.201-2.55
	s14.852-15.975,20.701-23.25c3.402-4.23,7.348-9.251,11.646-14.867c0.035,0.561,0.053,1.117,0.053,1.667
	C419.415,390.583,400.927,403.506,392.681,408.701L392.681,408.701z M273.958,352.054c-6.87,16.748-21.249,59.597-30,57.301
	c-7.513-1.971-12.088-34.544-1.5-66.6c5.329-16.137,16.712-35.418,23.4-42.901c10.766-12.042,22.62-15.981,25.5-11.099
	C295.029,294.976,278.266,341.555,273.958,352.054z M130.258,449.743c-19.725,21.52-47.283,29.651-59.1,22.802
	c-12.76-7.399-7.707-39.079,16.5-61.914c14.754-13.916,33.8-26.733,46.435-34.629c2.875-1.729,7.1-4.271,12.234-7.348
	c0.851-0.484,1.331-0.753,1.331-0.753l-0.019-0.033c0.991-0.592,2.006-1.201,3.055-1.827
	C159.502,398.544,150.962,427.158,130.258,449.743L130.258,449.743z M589.271,294.996c-23.932,0.126-44.658,5.871-62.033,14.435
	c-6.355-12.682-12.787-23.84-13.867-32.136c-1.26-9.685-2.723-15.463-1.199-27c1.523-11.538,8.199-27.875,8.102-29.099
	c-0.098-1.225-1.498-7.102-15.301-7.201s-25.611,2.654-27,6.3c-1.391,3.645-4.047,11.847-5.701,20.399
	c-2.418,12.517-27.559,57.154-41.834,80.507c-4.668-9.114-8.639-17.15-9.465-23.505c-1.26-9.686-2.723-15.463-1.201-27.002
	c1.523-11.536,8.199-27.876,8.102-29.1s-1.496-7.1-15.301-7.2c-13.803-0.099-25.609,2.655-27,6.3
	c-1.389,3.646-2.873,12.162-5.701,20.4c-2.826,8.24-36.246,82.701-45,102.001c-4.46,9.834-8.341,17.734-11.081,23.13
	c-0.008-0.014-0.018-0.029-0.018-0.029s-0.169,0.358-0.46,0.965c-2.345,4.592-3.741,7.133-3.741,7.133s0.015,0.035,0.041,0.096
	c-1.86,3.372-3.854,6.505-4.841,6.505c-0.69,0-2.071-8.978,0.301-21.3c4.973-25.83,16.919-66.112,16.8-67.5
	c-0.062-0.711,2.22-7.73-7.801-11.4c-9.741-3.564-13.21,2.382-14.099,2.4c-0.861,0.019-1.501,2.102-1.501,2.102
	s10.853-45.301-20.7-45.301c-19.727,0-47.06,21.579-60.525,41.139c-8.498,4.636-26.681,14.562-45.974,25.162
	c-7.41,4.069-14.971,8.23-22.141,12.181c-0.488-0.54-0.974-1.081-1.475-1.616C119.396,295.942,48.67,267.071,51.671,212.194
	c1.091-19.949,8.025-72.479,135.9-136.2c104.75-52.196,188.609-37.833,203.101-6c20.701,45.48-44.818,130.006-153.602,142.2
	c-41.448,4.646-63.271-11.416-68.7-17.399c-5.713-6.298-6.566-6.581-8.7-5.4c-3.475,1.927-1.272,7.486,0,10.8
	c3.249,8.454,16.576,23.444,39.3,30.9c19.99,6.561,68.652,10.164,127.5-12.6c65.913-25.496,117.38-96.418,102.263-155.7
	C413.36,2.501,313.388-17.32,218.772,16.295c-56.311,20.005-117.271,51.403-161.1,92.4C5.557,157.44-2.753,199.867,0.671,217.595
	c12.167,62.988,98.986,104.008,133.752,134.407c-1.716,0.946-3.325,1.835-4.789,2.643c-17.43,8.623-83.609,43.256-100.163,79.85
	c-18.777,41.51,2.989,71.29,17.4,75.301c44.648,12.423,90.465-9.923,115.087-46.649c24.617-36.717,21.611-84.527,10.312-106.351
	c-0.14-0.271-0.295-0.536-0.439-0.806c4.5-2.663,9.09-5.372,13.639-8.043c8.871-5.209,17.579-10.069,25.136-14.182
	c-4.228,11.586-7.325,25.474-8.936,45.53c-1.893,23.562,7.764,54.019,20.4,66.001c5.563,5.275,12.257,5.399,16.5,5.399
	c14.704,0,21.414-12.233,28.8-26.701c9.062-17.743,17.1-38.399,17.1-38.399s-10.09,55.8,17.401,55.8
	c10.016,0,20.092-12.989,24.58-19.611c0.012,0.073,0.019,0.111,0.019,0.111s0.261-0.431,0.771-1.296
	c1.04-1.59,1.628-2.603,1.628-2.603s0.02-0.104,0.053-0.288c4.026-6.991,12.956-22.93,26.349-49.213
	c17.303-33.959,33.898-76.5,33.898-76.5s1.543,10.4,6.6,27.6c2.975,10.12,9.295,21.307,14.281,32.034
	c-4.014,5.568-6.48,8.767-6.48,8.767s0.023,0.06,0.066,0.167c-3.207,4.257-6.803,8.853-10.566,13.332
	c-13.656,16.266-29.922,34.839-32.1,40.2c-2.566,6.316-1.959,10.962,3,14.7c3.621,2.729,10.07,3.153,16.799,2.699
	c12.273-0.824,20.908-3.868,25.168-5.722c6.641-2.349,14.375-6.043,21.633-11.378c13.396-9.849,21.477-23.938,20.701-42.6
	c-0.43-10.285-3.711-20.479-7.859-30.103c1.217-1.748,2.436-3.512,3.658-5.298c21.117-30.874,37.5-64.8,37.5-64.8
	s1.543,10.4,6.602,27.6c2.559,8.707,7.607,18.203,12.146,27.518c-19.857,16.136-32.172,34.883-36.449,47.183
	c-7.906,22.747-1.713,33.054,9.902,35.4c5.26,1.063,12.691-1.348,18.281-3.714c6.955-2.307,15.312-6.147,23.119-11.885
	c13.395-9.849,26.275-23.641,25.5-42.302c-0.355-8.496-2.66-16.929-5.785-25.03c16.832-7.011,38.625-10.909,66.385-7.668
	c59.549,6.953,71.232,44.136,69,59.698c-2.234,15.563-14.725,24.118-18.902,26.702c-4.174,2.582-5.449,3.479-5.098,5.399
	c0.508,2.793,2.438,2.685,5.998,2.085c4.902-0.827,31.271-12.659,32.4-41.385C686.104,334.726,651.163,294.666,589.271,294.996"/>
</svg>
