<?xml version="1.0" encoding="utf-8"?>
<!-- Generator: Adobe Illustrator 16.0.4, SVG Export Plug-In . SVG Version: 6.00 Build 0)  -->
<!DOCTYPE svg PUBLIC "-//W3C//DTD SVG 1.1//EN" "http://www.w3.org/Graphics/SVG/1.1/DTD/svg11.dtd">
<svg version="1.1" id="Ebene_1" xmlns="http://www.w3.org/2000/svg" xmlns:xlink="http://www.w3.org/1999/xlink" x="0px" y="0px"
	 width="100%" height="100%" viewBox="0 0 684.713 513.25" enable-background="new 0 0 684.713 513.25"
	 xml:space="preserve">
<g>
	<defs>
		<rect id="SVGID_1_" width="100%" height="100%"/>
	</defs>
	<clipPath id="SVGID_2_">
		<use xlink:href="#SVGID_1_"  overflow="visible"/>
	</clipPath>
	<path clip-path="url(#SVGID_2_)" fill="#FFFFFF" d="M484.142,387.851c-2.173-1.546-1.812-6.544,5.334-22.108
		c2.805-6.111,9.205-16.4,20.331-26.233c1.289,4.044,2.074,7.921,2.053,11.531C511.715,375.122,494.533,384.116,484.142,387.851
		L484.142,387.851z M392.681,408.7c-2.912,1.523-5.582,2.48-6.823,1.743c-0.91-0.543,1.2-2.551,1.2-2.551
		s14.852-15.975,20.701-23.25c3.401-4.229,7.348-9.251,11.646-14.866c0.035,0.561,0.054,1.116,0.054,1.667
		C419.414,390.583,400.927,403.505,392.681,408.7L392.681,408.7z M273.959,352.053c-6.87,16.749-21.249,59.598-30,57.301
		c-7.513-1.971-12.088-34.544-1.5-66.6c5.329-16.136,16.712-35.417,23.4-42.901c10.766-12.042,22.62-15.98,25.5-11.099
		C295.03,294.975,278.267,341.554,273.959,352.053z M130.259,449.743c-19.725,21.519-47.283,29.65-59.1,22.801
		c-12.76-7.399-7.707-39.079,16.5-61.914c14.754-13.916,33.8-26.733,46.435-34.629c2.875-1.729,7.1-4.271,12.234-7.348l1.331-0.754
		l-0.019-0.033l3.055-1.827C159.502,398.541,150.963,427.156,130.259,449.743L130.259,449.743z M589.271,294.995
		c-23.932,0.126-44.659,5.871-62.034,14.435c-6.355-12.682-12.786-23.84-13.866-32.136c-1.261-9.685-2.723-15.463-1.2-27
		c1.524-11.537,8.199-27.875,8.102-29.099c-0.099-1.224-1.498-7.101-15.3-7.201c-13.805-0.099-25.611,2.655-27,6.3
		c-1.391,3.645-4.049,11.848-5.701,20.4c-2.417,12.516-27.56,57.154-41.834,80.506c-4.669-9.114-8.64-17.15-9.466-23.505
		c-1.26-9.686-2.724-15.463-1.2-27.002c1.523-11.535,8.199-27.875,8.101-29.1c-0.098-1.224-1.496-7.1-15.3-7.2
		c-13.804-0.099-25.61,2.655-27,6.3s-2.874,12.161-5.701,20.4c-2.827,8.24-36.248,82.701-45,102.001
		c-4.46,9.834-8.341,17.734-11.081,23.13l-0.018-0.029l-0.46,0.965c-2.345,4.593-3.741,7.133-3.741,7.133l0.041,0.095
		c-1.86,3.373-3.854,6.505-4.841,6.505c-0.69,0-2.071-8.977,0.301-21.3c4.973-25.83,16.919-66.111,16.8-67.5
		c-0.063-0.711,2.22-7.729-7.801-11.399c-9.741-3.565-13.21,2.381-14.099,2.399c-0.861,0.02-1.501,2.102-1.501,2.102
		s10.852-45.3-20.7-45.3c-19.726,0-47.06,21.578-60.525,41.139c-8.498,4.635-26.681,14.561-45.974,25.161
		c-7.41,4.069-14.971,8.23-22.141,12.181c-0.487-0.54-0.974-1.081-1.475-1.616c-38.259-40.819-108.986-69.69-105.984-124.566
		c1.091-19.95,8.025-72.48,135.901-136.2c104.75-52.196,188.607-37.834,203.1-6c20.703,45.48-44.816,130.006-153.601,142.2
		c-41.447,4.646-63.271-11.416-68.7-17.4c-5.714-6.298-6.566-6.581-8.7-5.4c-3.475,1.926-1.272,7.486,0,10.8
		c3.249,8.454,16.576,23.444,39.3,30.9c19.99,6.56,68.653,10.164,127.5-12.6c65.912-25.495,117.38-96.418,102.263-155.7
		c-15.374-60.294-115.345-80.115-209.961-46.5c-56.311,20.005-117.27,51.404-161.1,92.4c-52.115,48.746-60.425,91.172-57.001,108.9
		C12.84,280.582,99.659,321.6,134.425,352l-4.789,2.643c-17.43,8.623-83.61,43.257-100.163,79.851
		c-18.777,41.509,2.989,71.29,17.4,75.3c44.648,12.424,90.465-9.922,115.087-46.647c24.617-36.719,21.611-84.528,10.313-106.352
		l-0.439-0.805c4.5-2.664,9.09-5.372,13.639-8.044c8.871-5.209,17.579-10.069,25.136-14.182c-4.228,11.586-7.325,25.475-8.936,45.53
		c-1.893,23.563,7.764,54.02,20.4,66.001c5.564,5.275,12.258,5.399,16.5,5.399c14.704,0,21.414-12.232,28.8-26.7
		c9.061-17.744,17.1-38.4,17.1-38.4s-10.09,55.801,17.401,55.801c10.016,0,20.093-12.989,24.58-19.611l0.019,0.111
		c0,0,0.261-0.432,0.771-1.297c1.04-1.59,1.629-2.603,1.629-2.603l0.052-0.288c4.026-6.991,12.956-22.93,26.349-49.214
		c17.302-33.959,33.898-76.5,33.898-76.5s1.545,10.401,6.601,27.6c2.975,10.12,9.295,21.307,14.28,32.034
		c-4.014,5.569-6.48,8.769-6.48,8.769l0.068,0.166c-3.209,4.258-6.805,8.852-10.566,13.331c-13.656,16.266-29.922,34.84-32.102,40.2
		c-2.564,6.316-1.959,10.962,3,14.7c3.623,2.73,10.072,3.153,16.801,2.7c12.273-0.825,20.906-3.869,25.168-5.723
		c6.641-2.35,14.375-6.043,21.634-11.377c13.396-9.85,21.477-23.938,20.7-42.601c-0.43-10.285-3.71-20.479-7.859-30.102
		c1.216-1.748,2.436-3.512,3.658-5.298c21.119-30.874,37.5-64.8,37.5-64.8s1.544,10.399,6.601,27.6
		c2.56,8.706,7.607,18.203,12.148,27.517c-19.858,16.135-32.172,34.883-36.449,47.183c-7.906,22.745-1.714,33.053,9.901,35.399
		c5.261,1.064,12.69-1.347,18.281-3.713c6.954-2.306,15.312-6.147,23.118-11.885c13.396-9.85,26.276-23.641,25.5-42.302
		c-0.354-8.495-2.658-16.929-5.784-25.029c16.832-7.011,38.626-10.91,66.385-7.669c59.55,6.954,71.233,44.136,69,59.698
		c-2.234,15.564-14.725,24.117-18.901,26.701c-4.175,2.582-5.449,3.479-5.099,5.4c0.507,2.792,2.438,2.685,5.999,2.085
		c4.902-0.828,31.271-12.659,32.4-41.385c1.434-36.471-33.509-76.53-95.4-76.2"/>
</g>
</svg>
