<?xml version="1.0" encoding="utf-8"?>
<!-- Generator: Adobe Illustrator 16.0.4, SVG Export Plug-In . SVG Version: 6.00 Build 0)  -->
<!DOCTYPE svg PUBLIC "-//W3C//DTD SVG 1.1//EN" "http://www.w3.org/Graphics/SVG/1.1/DTD/svg11.dtd">
<svg version="1.1" id="Ebene_1" xmlns="http://www.w3.org/2000/svg" xmlns:xlink="http://www.w3.org/1999/xlink" x="0px" y="0px"
	 width="684.713px" height="513.25px" viewBox="0 0 684.713 513.25" enable-background="new 0 0 684.713 513.25"
	 xml:space="preserve">
<path fill="#2D8D4A" d="M484.142,387.853c-2.174-1.547-1.812-6.544,5.332-22.108c2.808-6.111,9.205-16.399,20.332-26.232
	c1.289,4.044,2.074,7.922,2.054,11.531C511.714,375.125,494.532,384.118,484.142,387.853z M392.681,408.701
	c-2.912,1.522-5.582,2.479-6.824,1.742c-0.91-0.544,1.201-2.551,1.201-2.551s14.853-15.975,20.701-23.25
	c3.402-4.229,7.348-9.251,11.646-14.866c0.035,0.561,0.053,1.116,0.053,1.667C419.415,390.583,400.927,403.506,392.681,408.701
	L392.681,408.701z M273.958,352.054c-6.87,16.748-21.249,59.598-30,57.302c-7.513-1.972-12.088-34.545-1.5-66.601
	c5.329-16.137,16.712-35.418,23.4-42.901c10.766-12.041,22.62-15.98,25.5-11.099C295.029,294.977,278.266,341.555,273.958,352.054z
	 M130.258,449.743c-19.725,21.52-47.283,29.65-59.1,22.802c-12.76-7.398-7.707-39.079,16.5-61.914
	c14.754-13.916,33.8-26.732,46.435-34.629c2.875-1.729,7.1-4.271,12.234-7.348l1.331-0.753l-0.019-0.033l3.055-1.827
	C159.502,398.544,150.962,427.158,130.258,449.743L130.258,449.743z M589.271,294.996c-23.933,0.126-44.658,5.871-62.033,14.435
	c-6.355-12.682-12.787-23.84-13.867-32.136c-1.26-9.686-2.723-15.463-1.199-27c1.523-11.538,8.199-27.875,8.103-29.099
	c-0.099-1.225-1.498-7.102-15.302-7.201c-13.803-0.099-25.61,2.654-27,6.3c-1.391,3.645-4.047,11.847-5.701,20.399
	c-2.418,12.517-27.559,57.154-41.834,80.507c-4.668-9.114-8.639-17.15-9.464-23.505c-1.261-9.687-2.724-15.464-1.201-27.003
	c1.522-11.535,8.198-27.875,8.102-29.1c-0.097-1.224-1.496-7.1-15.301-7.2c-13.803-0.099-25.609,2.655-27,6.3
	c-1.389,3.646-2.873,12.162-5.701,20.4c-2.826,8.24-36.246,82.701-45,102.001c-4.46,9.834-8.341,17.734-11.081,23.13l-0.018-0.028
	l-0.46,0.965c-2.345,4.592-3.741,7.133-3.741,7.133l0.041,0.096c-1.86,3.372-3.854,6.505-4.841,6.505
	c-0.69,0-2.071-8.978,0.301-21.3c4.973-25.83,16.919-66.111,16.8-67.5c-0.062-0.711,2.22-7.729-7.801-11.399
	c-9.741-3.564-13.21,2.382-14.099,2.399c-0.861,0.02-1.501,2.103-1.501,2.103s10.853-45.301-20.7-45.301
	c-19.727,0-47.06,21.578-60.525,41.139c-8.498,4.636-26.681,14.562-45.974,25.162c-7.41,4.068-14.971,8.229-22.141,12.181
	c-0.488-0.54-0.974-1.081-1.475-1.616C119.396,295.941,48.67,267.07,51.671,212.194c1.091-19.949,8.025-72.479,135.9-136.2
	c104.75-52.196,188.609-37.833,203.101-6c20.701,45.48-44.817,130.006-153.602,142.2c-41.448,4.646-63.271-11.416-68.7-17.399
	c-5.713-6.298-6.566-6.581-8.7-5.4c-3.475,1.927-1.272,7.486,0,10.8c3.249,8.454,16.576,23.444,39.3,30.9
	c19.99,6.561,68.652,10.164,127.5-12.6c65.913-25.496,117.38-96.418,102.264-155.7C413.36,2.501,313.388-17.32,218.772,16.295
	c-56.311,20.005-117.271,51.403-161.1,92.4C5.557,157.44-2.753,199.867,0.671,217.595c12.167,62.988,98.986,104.007,133.752,134.407
	l-4.789,2.643c-17.43,8.623-83.609,43.257-100.163,79.851c-18.777,41.51,2.989,71.29,17.4,75.301
	c44.648,12.423,90.465-9.923,115.087-46.648c24.617-36.718,21.611-84.527,10.312-106.352l-0.439-0.806
	c4.5-2.663,9.09-5.372,13.639-8.043c8.871-5.209,17.579-10.069,25.136-14.183c-4.228,11.586-7.325,25.475-8.936,45.53
	c-1.893,23.562,7.764,54.02,20.4,66.001c5.563,5.275,12.257,5.399,16.5,5.399c14.704,0,21.414-12.233,28.8-26.701
	c9.062-17.743,17.1-38.399,17.1-38.399s-10.09,55.8,17.401,55.8c10.016,0,20.092-12.988,24.58-19.61l0.019,0.11
	c0,0,0.261-0.431,0.771-1.296c1.04-1.59,1.628-2.603,1.628-2.603l0.053-0.288c4.026-6.991,12.956-22.93,26.349-49.213
	c17.303-33.959,33.898-76.5,33.898-76.5s1.543,10.399,6.6,27.6c2.976,10.12,9.295,21.308,14.281,32.034
	c-4.014,5.568-6.48,8.768-6.48,8.768l0.066,0.167c-3.207,4.257-6.803,8.853-10.566,13.331c-13.655,16.267-29.922,34.84-32.1,40.2
	c-2.566,6.316-1.959,10.962,3,14.7c3.621,2.729,10.07,3.153,16.799,2.699c12.273-0.824,20.908-3.868,25.168-5.722
	c6.642-2.35,14.375-6.043,21.634-11.378c13.396-9.85,21.477-23.938,20.7-42.601c-0.43-10.285-3.711-20.479-7.858-30.103
	c1.217-1.748,2.436-3.513,3.658-5.299c21.116-30.873,37.5-64.8,37.5-64.8s1.543,10.4,6.602,27.601
	c2.559,8.707,7.607,18.203,12.146,27.518c-19.857,16.136-32.173,34.883-36.449,47.184c-7.906,22.746-1.713,33.054,9.901,35.399
	c5.261,1.063,12.691-1.348,18.281-3.714c6.955-2.307,15.312-6.147,23.119-11.885c13.396-9.85,26.275-23.642,25.5-42.303
	c-0.354-8.495-2.66-16.929-5.785-25.029c16.832-7.012,38.625-10.909,66.385-7.668c59.55,6.953,71.232,44.136,69,59.697
	c-2.233,15.563-14.725,24.118-18.901,26.702c-4.174,2.582-5.449,3.479-5.099,5.399c0.509,2.793,2.438,2.685,5.998,2.085
	c4.902-0.827,31.271-12.659,32.4-41.385C686.104,334.726,651.163,294.666,589.271,294.996"/>
</svg>
