<?xml version="1.0" encoding="utf-8"?>
<!-- Generator: Adobe Illustrator 16.0.0, SVG Export Plug-In . SVG Version: 6.00 Build 0)  -->
<!DOCTYPE svg PUBLIC "-//W3C//DTD SVG 1.1//EN" "http://www.w3.org/Graphics/SVG/1.1/DTD/svg11.dtd">
<svg version="1.1" id="Gruppe_3_1_" xmlns="http://www.w3.org/2000/svg" xmlns:xlink="http://www.w3.org/1999/xlink" x="0px"
	 y="0px" width="187.067px" height="86.998px" viewBox="0 0 187.067 86.998" enable-background="new 0 0 187.067 86.998"
	 xml:space="preserve">
<g id="Abgerundetes_Rechteck_5">
	<g>
		<path fill="#4FB56E" d="M179.025,16.696c-7.255-3.729-16.144-0.84-19.854,6.454l-21.493,42.26
			c-3.709,7.294-0.835,16.229,6.421,19.958c7.255,3.729,16.145,0.84,19.854-6.454l21.493-42.26
			C189.156,29.36,186.281,20.425,179.025,16.696z"/>
	</g>
</g>
<g id="Abgerundetes_Rechteck_5_Kopie">
	<g>
		<path fill="#309A50" d="M163.329,65.41L127.08,8.318c-3.709-7.294-12.598-10.184-19.854-6.454
			c-7.255,3.729-10.13,12.664-6.42,19.958l36.248,57.092c3.709,7.294,12.598,10.184,19.854,6.454
			C164.164,81.64,167.038,72.704,163.329,65.41z"/>
	</g>
</g>
<g id="Abgerundetes_Rechteck_5_Kopie_2">
	<g>
		<path fill="#4FB56E" d="M120.006,1.864c-7.256-3.729-16.145-0.84-19.854,6.454L63.904,65.41
			c-3.709,7.294-0.834,16.229,6.421,19.958c7.256,3.729,16.145,0.84,19.854-6.454l36.249-57.092
			C130.137,14.528,127.262,5.593,120.006,1.864z"/>
	</g>
</g>
<g id="Abgerundetes_Rechteck_5_Kopie_3">
	<g>
		<path fill="#4FB56E" d="M89.554,65.41L53.306,8.318C49.597,1.024,40.708-1.865,33.452,1.864
			c-7.256,3.729-10.13,12.664-6.421,19.958l36.248,57.092c3.709,7.294,12.599,10.184,19.854,6.454
			C90.389,81.64,93.264,72.704,89.554,65.41z"/>
	</g>
</g>
<g id="Abgerundetes_Rechteck_5_Kopie_4" opacity="0.2118">
	<g>
		<path fill="#309A50" d="M49.67,3.763C43.588-1.689,34.261-1.153,28.837,4.96L3.743,29.909c-5.423,6.113-4.89,15.489,1.191,20.941
			s15.409,4.916,20.833-1.197l25.094-24.949C56.285,18.591,55.751,9.215,49.67,3.763z"/>
	</g>
</g>
</svg>
